<svg xmlns="http://www.w3.org/2000/svg" viewBox="0 0 273.42 35.52" xmlns:xlink="http://www.w3.org/1999/xlink">
  <defs>
    <linearGradient id="a" x2="273.42" y1="17.76" y2="17.76" gradientUnits="userSpaceOnUse">
      <stop offset="0" stop-color="#90cea1"/>
      <stop offset=".56" stop-color="#3cbec9"/>
      <stop offset="1" stop-color="#00b3e5"/>
    </linearGradient>
  </defs>
  <g data-name="Layer 2">
    <path fill="url(#a)" d="M191.85 35.37h63.9a17.67 17.67 0 0 0 17.67-17.67A17.67 17.67 0 0 0 255.75 0h-63.9a17.67 17.67 0 0 0-17.67 17.7 17.67 17.67 0 0 0 17.67 17.67m-181.75.05h7.8V6.92H28V0H0v6.9h10.1Zm28.1 0H46V8.25h.1l8.95 27.15h6L70.3 8.25h.1V35.4h7.8V0H66.45l-8.2 23.1h-.1L50 0H38.2ZM89.14.12h11.7a33.6 33.6 0 0 1 8.08 1 18.5 18.5 0 0 1 6.67 3.08 15.1 15.1 0 0 1 4.53 5.52 18.5 18.5 0 0 1 1.67 8.25 16.9 16.9 0 0 1-1.62 7.58 16.3 16.3 0 0 1-4.38 5.5 19.2 19.2 0 0 1-6.35 3.37 24.5 24.5 0 0 1-7.55 1.15H89.14Zm7.8 28.2h4a21.7 21.7 0 0 0 5-.55A10.6 10.6 0 0 0 110 26a8.7 8.7 0 0 0 2.68-3.35 11.9 11.9 0 0 0 1-5.08 9.9 9.9 0 0 0-1-4.52 9.2 9.2 0 0 0-2.63-3.18A11.6 11.6 0 0 0 106.22 8a17 17 0 0 0-4.68-.63h-4.6ZM133.09.12h13.2a33 33 0 0 1 4.63.33 12.7 12.7 0 0 1 4.17 1.3 7.94 7.94 0 0 1 3 2.72 8.34 8.34 0 0 1 1.15 4.65 7.48 7.48 0 0 1-1.67 5 9.13 9.13 0 0 1-4.43 2.82V17a10.3 10.3 0 0 1 3.18 1 8.5 8.5 0 0 1 2.45 1.85 7.8 7.8 0 0 1 1.57 2.62 9.2 9.2 0 0 1 .55 3.2 8.5 8.5 0 0 1-1.2 4.68 9.3 9.3 0 0 1-3.1 3 13.4 13.4 0 0 1-4.27 1.65 22.5 22.5 0 0 1-4.73.5h-14.5Zm7.8 14.15h5.65a7.7 7.7 0 0 0 1.78-.2 4.8 4.8 0 0 0 1.57-.65 3.4 3.4 0 0 0 1.13-1.2 3.63 3.63 0 0 0 .42-1.8A3.3 3.3 0 0 0 151 8.6a3.4 3.4 0 0 0-1.23-1.13A6 6 0 0 0 148 6.9a10 10 0 0 0-1.85-.18h-5.3Zm0 14.65h7a8.3 8.3 0 0 0 1.83-.2 4.7 4.7 0 0 0 1.67-.7 3.9 3.9 0 0 0 1.23-1.3 3.8 3.8 0 0 0 .47-1.95 3.16 3.16 0 0 0-.62-2 4 4 0 0 0-1.58-1.18 8.2 8.2 0 0 0-2-.55 15 15 0 0 0-2.05-.15h-5.9Z" data-name="Layer 1"/>
  </g>
</svg>
